<svg width="127" height="66" viewBox="0 0 127 66" fill="none" xmlns="http://www.w3.org/2000/svg">
<path d="M10.9928 10.9707C10.9928 11.4167 10.9095 11.8626 10.743 12.2194C10.5764 12.5761 10.4099 12.8437 10.0767 13.1113C9.8269 13.3788 9.49379 13.5572 9.16067 13.6464C8.82756 13.7356 8.49444 13.8248 8.16133 13.914V14.8059H6.49576V13.914C5.99608 13.8248 5.57969 13.7356 5.24658 13.5572C4.91346 13.3788 4.58035 13.2005 4.41379 12.8437C4.16395 12.5761 3.99739 12.2194 3.91412 11.8626C3.83084 11.5059 3.74756 11.0599 3.74756 10.614V6.86803C3.74756 6.42208 3.83084 5.97614 3.99739 5.61938C4.16395 5.26262 4.33051 4.99505 4.66362 4.72749C4.91346 4.45992 5.24657 4.28154 5.57969 4.19235C5.9128 4.10316 6.24592 4.01397 6.57903 4.01397V3.38965H8.24461V4.01397C8.57772 4.01397 8.91084 4.10316 9.24395 4.19235C9.57707 4.37073 9.8269 4.54911 10.16 4.72749C10.4099 4.99505 10.6597 5.26262 10.743 5.61938C10.9095 5.97614 10.9928 6.42208 10.9928 6.86803V10.9707ZM6.57903 5.35181C6.24592 5.441 5.9128 5.61938 5.66297 5.79776C5.49641 5.97614 5.41313 6.33289 5.41313 6.77884V11.1491C5.41313 11.3275 5.41313 11.5059 5.49641 11.6842C5.57969 11.8626 5.66297 11.9518 5.74625 12.041C5.82953 12.1302 5.99608 12.2194 6.16264 12.3086C6.3292 12.3978 6.49576 12.3978 6.57903 12.3978V5.35181ZM9.49379 6.77884C9.49379 6.33289 9.41051 6.06532 9.16067 5.79776C8.91084 5.53019 8.661 5.441 8.32789 5.441V12.4869C8.49444 12.4869 8.57772 12.3978 8.74428 12.3978C8.91084 12.3086 8.99412 12.2194 9.16067 12.1302C9.24395 12.041 9.41051 11.8626 9.41051 11.7734C9.49379 11.5951 9.49379 11.4167 9.49379 11.2383V6.77884Z" fill="#0076F6"/>
<path d="M19.3207 11.862C19.3207 12.843 19.0708 13.5566 18.6544 14.0917C18.238 14.6268 17.5718 14.8052 16.6557 14.8052C15.7397 14.8052 15.0734 14.5376 14.657 14.0917C14.2407 13.6458 14.0741 12.9322 14.0741 11.9512V6.33224C14.0741 5.88629 14.1574 5.44035 14.2407 5.08359C14.3239 4.72683 14.4905 4.37007 14.657 4.10251C14.9069 3.83494 15.1567 3.65656 15.4898 3.47818C15.8229 3.38899 16.1561 3.2998 16.6557 3.2998C17.1554 3.2998 17.5718 3.38899 17.9049 3.47818C18.238 3.65656 18.4879 3.83494 18.7377 4.10251C18.9043 4.37007 19.0708 4.72683 19.1541 5.08359C19.2374 5.44035 19.3207 5.88629 19.3207 6.33224V11.862ZM17.5718 6.15386C17.5718 5.7971 17.4885 5.52953 17.4052 5.26197C17.2387 4.9944 17.0721 4.90521 16.6557 4.90521C16.4892 4.90521 16.3226 4.90521 16.1561 5.08359C16.0728 5.17278 15.9062 5.26197 15.8229 5.44035C15.7397 5.61872 15.7397 5.70791 15.6564 5.88629C15.6564 6.06467 15.6564 6.24305 15.6564 6.33224V12.0403C15.6564 12.3079 15.7397 12.5755 15.9062 12.843C16.0728 13.1106 16.3226 13.1998 16.6557 13.1998C16.9889 13.1998 17.2387 13.1106 17.4052 12.843C17.5718 12.5755 17.6551 12.3079 17.6551 11.9512L17.5718 6.15386Z" fill="#0076F6"/>
<path d="M26.0663 14.8059V9.81127H24.1509V14.8059H22.4854V3.38965H24.1509V8.11668H26.0663V3.38965H27.7319V14.8059H26.0663Z" fill="#0076F6"/>
<path d="M31.6457 14.8059V16.9464H30.23V13.2896L30.8962 13.1113C31.2293 12.7545 31.3959 12.3978 31.4792 11.9518C31.5624 11.5059 31.6457 10.9707 31.6457 10.2572L31.8123 3.38965H36.6424V13.1113H37.3087V16.9464H35.8929V14.8059H31.6457ZM33.228 10.2572C33.228 10.8815 33.1447 11.5059 33.1447 11.9518C33.0615 12.3978 32.9782 12.8437 32.8116 13.1113H35.1434V5.08424H33.3113L33.228 10.2572Z" fill="#0076F6"/>
<path d="M47.4688 3.2998C47.8852 3.2998 48.3016 3.38899 48.6347 3.47818C48.9678 3.56737 49.2177 3.83494 49.4675 4.01332C49.7174 4.28089 49.8006 4.54845 49.9672 4.81602C49.9672 5.17278 49.9672 5.52953 49.9672 5.88629L48.3016 6.33224C48.3016 5.88629 48.2183 5.61872 48.0518 5.35116C47.8852 5.08359 47.6354 4.9944 47.3023 4.9944C47.1357 4.9944 46.9692 4.9944 46.8026 5.08359C46.7193 5.17278 46.5528 5.26197 46.5528 5.44035C46.4695 5.61872 46.4695 5.70791 46.3862 5.88629C46.3862 6.06467 46.3862 6.24305 46.3862 6.33224V12.1295C46.3862 12.2187 46.3862 12.3971 46.3862 12.4863C46.3862 12.6647 46.4695 12.7539 46.5528 12.843C46.636 12.9322 46.7193 13.0214 46.8026 13.1106C46.8859 13.1998 47.0524 13.1998 47.219 13.1998C47.8019 13.1998 48.1351 12.7539 48.1351 11.7728C48.3849 11.862 48.718 11.862 48.9678 11.9512C49.2177 12.0403 49.5508 12.0403 49.8006 12.0403C49.8006 12.9322 49.5508 13.5566 49.1344 14.0917C48.718 14.6268 48.0518 14.8052 47.219 14.8052C46.3029 14.8052 45.6367 14.5376 45.2203 14.0917C44.8039 13.6458 44.5541 12.9322 44.5541 12.0403V6.42143C44.5541 5.97548 44.5541 5.61872 44.7206 5.17278C44.8039 4.81602 44.9705 4.45926 45.137 4.1917C45.3869 3.92413 45.6367 3.65656 45.9698 3.56737C46.5528 3.38899 46.9692 3.2998 47.4688 3.2998Z" fill="#0076F6"/>
<path d="M57.962 11.8623C57.962 12.8434 57.7122 13.5569 57.2958 14.092C56.8794 14.6272 56.2132 14.8055 55.2971 14.8055C54.381 14.8055 53.7148 14.538 53.2984 14.092C52.882 13.6461 52.7155 12.9326 52.7155 11.9515V6.33256C52.7155 5.88661 52.7987 5.44067 52.882 5.08391C52.9653 4.72715 53.1318 4.3704 53.2984 4.10283C53.465 3.83526 53.7981 3.65688 54.1312 3.47851C54.4643 3.30013 54.8807 3.21094 55.2971 3.21094C55.7968 3.21094 56.2132 3.30013 56.5463 3.38932C56.8794 3.56769 57.1292 3.74607 57.3791 4.01364C57.5456 4.28121 57.7122 4.63796 57.7955 4.99472C57.8787 5.35148 57.962 5.79742 57.962 6.24337V11.8623ZM56.2964 6.15418C56.2964 5.79742 56.2132 5.52986 56.1299 5.26229C55.9633 4.99472 55.7968 4.90553 55.3804 4.90553C55.2138 4.90553 55.0473 4.90553 54.8807 5.08391C54.7974 5.1731 54.6309 5.26229 54.5476 5.44067C54.4643 5.61905 54.4643 5.70823 54.381 5.88661C54.381 6.06499 54.381 6.24337 54.381 6.33256V12.0407C54.381 12.3082 54.4643 12.5758 54.6309 12.8434C54.7974 13.1109 55.0473 13.2001 55.3804 13.2001C55.7135 13.2001 55.9633 13.1109 56.1299 12.8434C56.2964 12.5758 56.3797 12.3082 56.3797 11.9515L56.2964 6.15418Z" fill="#0076F6"/>
<path d="M61.8762 14.8059V16.9464H60.4604V13.2896L61.1267 13.1113C61.4598 12.7545 61.6264 12.3978 61.7096 11.9518C61.7929 11.5059 61.8762 10.9707 61.8762 10.2572L62.0427 3.38965H66.8729V13.1113H67.5391V16.9464H66.1234V14.8059H61.8762ZM63.3752 10.2572C63.3752 10.8815 63.2919 11.5059 63.2919 11.9518C63.2086 12.3978 63.1254 12.8437 62.9588 13.1113H65.2906V5.08424H63.5418L63.3752 10.2572Z" fill="#0076F6"/>
<path d="M70.2871 14.8059V3.38965H75.1173V4.99505H71.9527V8.11668H74.7009V9.81127H71.9527V13.1113H75.1173V14.8059H70.2871Z" fill="#0076F6"/>
<path d="M81.6132 7.6703L79.3646 14.8054H77.7823V3.38922H79.4479V10.6135H79.5312L81.7797 3.38922H83.4453V14.7162H81.7797L81.6132 7.6703ZM79.6145 0.802734C79.6145 0.891924 79.6145 1.0703 79.6978 1.15949C79.781 1.24868 79.8643 1.42706 79.9476 1.51625C80.0309 1.60544 80.1142 1.69463 80.2807 1.78382C80.364 1.873 80.5305 1.873 80.6971 1.873C80.8637 1.873 81.0302 1.873 81.1135 1.78382C81.1968 1.69463 81.3633 1.60544 81.4466 1.51625C81.5299 1.42706 81.6132 1.33787 81.6132 1.15949C81.6132 0.981113 81.6132 0.891924 81.6132 0.802734H82.8623C82.8623 0.981113 82.7791 1.24868 82.6958 1.51625C82.6125 1.78382 82.446 2.05138 82.2794 2.31895C82.1128 2.49733 81.863 2.67571 81.6132 2.85409C81.3633 3.03246 81.0302 3.03246 80.6971 3.03246C80.2807 3.03246 79.9476 2.94327 79.6978 2.85409C79.3646 2.67571 79.1148 2.49733 78.9483 2.31895C78.7817 2.14057 78.6151 1.873 78.5319 1.60544C78.4486 1.33787 78.3653 1.0703 78.3653 0.891924L79.6145 0.802734Z" fill="#0076F6"/>
<path d="M89.0249 3.2998C89.4413 3.2998 89.8577 3.38899 90.1908 3.47818C90.524 3.56737 90.7738 3.83494 91.0236 4.01332C91.2735 4.28089 91.3567 4.54845 91.5233 4.81602C91.6066 5.17278 91.6898 5.44035 91.6898 5.88629L90.0243 6.33224C90.0243 5.88629 89.941 5.61872 89.7744 5.35116C89.6079 5.08359 89.358 4.9944 89.0249 4.9944C88.8584 4.9944 88.6918 4.9944 88.5253 5.08359C88.442 5.17278 88.2754 5.26197 88.2754 5.44035C88.1921 5.61872 88.1921 5.70791 88.1089 5.88629C88.1089 6.06467 88.1089 6.24305 88.1089 6.33224V12.1295C88.1089 12.2187 88.1089 12.3971 88.1089 12.4863C88.1089 12.6647 88.1921 12.7539 88.2754 12.843C88.3587 12.9322 88.442 13.0214 88.5253 13.1106C88.6085 13.1998 88.7751 13.1998 88.9417 13.1998C89.5246 13.1998 89.8577 12.7539 89.8577 11.7728C90.1076 11.862 90.4407 11.862 90.6905 11.9512C90.9403 12.0403 91.2735 12.0403 91.5233 12.0403C91.5233 12.9322 91.2735 13.5566 90.8571 14.0917C90.4407 14.6268 89.7744 14.8052 88.9417 14.8052C88.0256 14.8052 87.4426 14.5376 86.943 14.0917C86.4433 13.6458 86.2767 12.9322 86.2767 12.0403V6.42143C86.2767 5.97548 86.2767 5.61872 86.4433 5.17278C86.5266 4.81602 86.6931 4.45926 86.8597 4.1917C87.1095 3.92413 87.3594 3.65656 87.6925 3.56737C88.1089 3.38899 88.5253 3.2998 89.0249 3.2998Z" fill="#0076F6"/>
<path d="M97.1029 4.99505V14.8059H95.4373V4.99505H93.6885V3.38965H98.8518V4.99505H97.1029Z" fill="#0076F6"/>
<path d="M105.264 8.83019C105.764 9.00857 106.097 9.27613 106.264 9.72208C106.43 10.168 106.514 10.7032 106.514 11.3275C106.514 12.4869 106.264 13.3788 105.764 13.914C105.264 14.4491 104.515 14.7167 103.516 14.7167H101.267V3.38965H103.599C104.515 3.38965 105.264 3.65722 105.681 4.19235C106.097 4.72749 106.347 5.53019 106.347 6.51127C106.347 7.04641 106.264 7.49235 106.097 7.84911C106.014 8.20586 105.681 8.56262 105.264 8.83019ZM104.848 6.51127C104.848 5.97614 104.765 5.61938 104.515 5.35181C104.348 5.08424 104.015 4.99505 103.516 4.99505H103.016V7.9383H103.599C104.015 7.9383 104.348 7.84911 104.515 7.58154C104.682 7.31397 104.848 6.95722 104.848 6.51127ZM104.931 11.1491C104.931 10.614 104.848 10.2572 104.682 9.98965C104.515 9.72208 104.182 9.63289 103.682 9.63289H103.016V13.2005H103.682C103.932 13.2005 104.182 13.1113 104.348 13.0221C104.515 12.9329 104.598 12.7545 104.682 12.5761C104.765 12.3978 104.848 12.2194 104.848 11.9518C104.931 11.6842 104.931 11.4167 104.931 11.1491Z" fill="#0076F6"/>
<path d="M113.426 7.67073L111.177 14.8059H109.595V3.38965H111.177V10.614H111.26L113.509 3.38965H115.174V14.8059H113.509V7.67073H113.426Z" fill="#0076F6"/>
<path d="M117.923 14.8059L118.506 11.2383C118.589 10.8815 118.672 10.5248 118.839 10.168C119.005 9.81127 119.172 9.63289 119.505 9.45451C119.005 9.27614 118.672 8.91938 118.506 8.47343C118.339 8.02749 118.256 7.49235 118.256 6.86803C118.256 5.70857 118.506 4.90586 119.005 4.28154C119.505 3.74641 120.255 3.38965 121.087 3.38965H123.586V14.7167H121.92V9.90046H121.504C121.171 9.90046 120.921 9.98965 120.671 10.2572C120.421 10.5248 120.255 10.8815 120.171 11.5951L119.672 14.8059H117.923ZM121.254 4.99505C120.754 4.99505 120.421 5.17343 120.171 5.441C119.922 5.70857 119.838 6.15451 119.838 6.68965C119.838 7.22478 120.005 7.67073 120.255 7.84911C120.504 8.02749 120.838 8.20586 121.254 8.20586H121.92V4.99505H121.254Z" fill="#0076F6"/>
<path d="M8.82757 24.2592L5.9961 33.089H4.08069V18.9971H6.07938V27.916H6.16266L8.91085 18.9971H10.9095V33.089H8.91085V24.2592H8.82757Z" fill="#0076F6"/>
<path d="M21.0695 33.089V26.9349H18.7377V33.089H16.6558V18.9971H18.7377V24.8836H21.0695V18.9971H23.1515V33.089H21.0695Z" fill="#0076F6"/>
<path d="M33.3947 33.089V26.9349H30.9796V33.089H28.981V18.9971H30.9796V24.8836H33.3947V18.9971H35.4767V33.089H33.3947Z" fill="#0076F6"/>
<path d="M47.6354 29.4325C47.6354 30.6812 47.3855 31.5731 46.8859 32.1974C46.3862 32.8217 45.5534 33.1785 44.3875 33.1785C43.2216 33.1785 42.4721 32.9109 41.9724 32.2866C41.4727 31.6623 41.2229 30.8596 41.2229 29.7001V22.565C41.2229 22.0298 41.3062 21.4947 41.3895 21.0487C41.4727 20.6028 41.7226 20.1569 41.9724 19.8893C42.2222 19.5325 42.5554 19.265 42.9718 19.1758C43.3881 18.9974 43.8878 18.9082 44.4708 18.9082C45.0537 18.9082 45.6367 18.9974 45.9698 19.1758C46.3862 19.3541 46.7193 19.6217 46.9691 19.8893C47.219 20.246 47.3855 20.6028 47.5521 21.0487C47.6354 21.4947 47.7186 22.0298 47.7186 22.6541L47.6354 29.4325ZM45.5534 22.3866C45.5534 22.0298 45.4701 21.6731 45.3036 21.3163C45.137 20.9596 44.8039 20.8704 44.3875 20.8704C44.1377 20.8704 43.9711 20.9596 43.8045 21.0487C43.638 21.1379 43.5547 21.3163 43.4714 21.4947C43.3881 21.6731 43.3049 21.8514 43.3049 22.0298C43.3049 22.2082 43.2216 22.3866 43.2216 22.6541V29.7893C43.2216 30.146 43.3049 30.5028 43.4714 30.7704C43.638 31.0379 43.9711 31.2163 44.3875 31.2163C44.8039 31.2163 45.137 31.0379 45.3036 30.7704C45.4701 30.4136 45.5534 30.0568 45.5534 29.7001V22.3866Z" fill="#0076F6"/>
<path d="M58.1285 25.6866C58.7115 25.865 59.1279 26.3109 59.3777 26.846C59.6275 27.3812 59.7108 28.0947 59.7108 28.8082C59.7108 30.3244 59.3777 31.3947 58.7947 32.019C58.2118 32.7325 57.2957 33.0893 56.0465 33.0893H53.2983V18.9082H56.2131C57.379 18.9082 58.2118 19.265 58.7947 19.8893C59.3777 20.5136 59.6275 21.4947 59.6275 22.7433C59.6275 23.3677 59.5442 23.992 59.2944 24.4379C59.0446 24.8839 58.7115 25.3298 58.2118 25.5082L58.1285 25.6866ZM57.5456 22.8325C57.5456 22.2082 57.4623 21.6731 57.2124 21.4055C56.9626 21.1379 56.5462 20.9596 55.9633 20.9596H55.297V24.6163H55.9633C56.5462 24.6163 56.8793 24.4379 57.1292 24.1704C57.4623 23.8136 57.5456 23.3677 57.5456 22.8325ZM57.7121 28.6298C57.7121 28.0055 57.6288 27.4704 57.379 27.1136C57.1292 26.7569 56.7128 26.6677 56.1298 26.6677H55.3803V31.0379H56.2131C56.5462 31.0379 56.796 30.9487 57.0459 30.8596C57.2124 30.7704 57.379 30.5028 57.5456 30.3244C57.6288 30.146 57.7121 29.8785 57.7954 29.6109C57.7121 29.2541 57.7121 28.8974 57.7121 28.6298Z" fill="#0076F6"/>
<path d="M70.1207 33.089L69.621 30.1457H67.2059C67.1226 30.5917 67.0394 31.1268 66.9561 31.5727C66.8728 32.1079 66.7895 32.5538 66.7062 33.089H64.6243C65.0407 30.6809 65.5403 28.3619 65.9567 26.043C66.3731 23.7241 66.8728 21.316 67.2892 18.9971H69.621L72.3692 33.089H70.1207ZM68.2885 22.2079C68.122 23.189 68.0387 24.17 67.8721 25.1511C67.7056 26.1322 67.539 27.1133 67.3725 28.0944H69.2046L68.2885 22.2079Z" fill="#0076F6"/>
<path d="M83.6951 18.9971V31.0376H84.5279V35.7646H82.779V33.089H77.1993V18.9971H79.2813V31.0376H81.6131V18.9971H83.6951Z" fill="#0076F6"/>
<path d="M94.2714 24.2592L91.5233 33.089H89.4413V18.9971H91.5233V27.916H91.6065L94.3547 18.9971H96.3534V33.089H94.3547V24.2592H94.2714Z" fill="#0076F6"/>
<path d="M101.6 33.0893L102.349 28.6298C102.433 28.1839 102.599 27.7379 102.766 27.292C102.932 26.9352 103.266 26.5785 103.599 26.4001C103.016 26.1325 102.599 25.6866 102.349 25.1514C102.1 24.6163 102.016 23.9028 102.016 23.1893C102.016 21.7623 102.349 20.7812 102.932 19.9785C103.599 19.265 104.431 18.9082 105.514 18.9082H108.595V33.0001H106.513V26.9352H105.93C105.597 26.9352 105.264 27.1136 104.931 27.3812C104.598 27.6487 104.431 28.1839 104.265 28.9866L103.599 33.0001L101.6 33.0893ZM105.681 21.0487C105.098 21.0487 104.598 21.2271 104.348 21.6731C104.098 22.0298 104.015 22.565 104.015 23.2785C104.015 23.992 104.182 24.4379 104.515 24.7055C104.848 24.9731 105.264 25.0623 105.764 25.0623H106.597V21.0487C106.513 21.0487 105.681 21.0487 105.681 21.0487Z" fill="#0076F6"/>
<path d="M118.172 29.9673L117.256 27.3809L116.424 24.8836H116.34V33.089H114.258V18.9971H116.257L117.673 23.0106L118.755 26.043H118.839L119.921 22.9214L121.337 18.9971H123.336V33.089H121.254V24.9727L120.338 27.47L119.422 29.9673H118.172Z" fill="#0076F6"/>
<path d="M122.17 40.2242C122.586 39.9567 123.003 39.5999 123.419 39.3324H123.502C121.17 40.4918 118.839 41.4729 116.59 42.454C102.266 48.4296 88.8583 50.9269 77.116 51.0161C60.6269 51.1053 47.6354 46.3783 40.7232 39.2432H28.2314C46.9692 58.2405 90.6905 62.6107 122.17 40.2242Z" fill="#F7F7F7"/>
<path d="M15.9063 39.2435H4.08069C19.9036 57.1705 42.5554 63.9489 61.543 64.8408C63.5417 64.93 65.4571 64.93 67.2892 64.93C79.6145 64.7516 93.3554 61.8975 105.264 55.03C112.093 51.1056 118.339 45.9327 123.419 39.1543C94.6046 69.4786 36.8925 64.2165 15.9063 39.2435Z" fill="#EF2616"/>
<path d="M123.419 39.2432C122.919 39.5999 122.503 39.9567 122.087 40.2242C90.6905 62.6107 46.9692 58.2405 28.2315 39.2432H15.9062C36.8925 64.2161 94.6046 69.4783 123.419 39.2432Z" fill="#0033A4"/>
<path d="M123.752 39.1536C123.752 39.0644 123.669 38.9753 123.585 38.9753C123.585 38.9753 123.502 38.8861 123.419 38.8861H123.336H123.252H123.169C120.837 39.9563 118.589 41.0266 116.257 42.0077C103.016 47.4482 89.4412 50.3915 76.9493 50.4807H76.2831C60.9598 50.4807 48.1349 46.2888 41.0562 38.9753L40.973 38.8861L40.8897 38.7969H40.8064H4.16378C4.16378 38.7969 4.0805 38.7969 3.99722 38.8861L3.83066 38.9753C3.74739 39.0644 3.66411 39.1536 3.74739 39.2428V39.4212C3.74739 39.4212 3.74739 39.5104 3.83066 39.5996C11.1592 47.8942 20.4864 54.3158 31.4792 58.7753C40.6398 62.5212 51.0497 64.6617 61.4595 65.1969C62.8753 65.2861 64.3743 65.2861 65.8733 65.2861C66.373 65.2861 66.7894 65.2861 67.289 65.2861C73.7848 65.1969 80.2805 64.3942 86.5264 62.7888C93.3553 61.0942 99.6844 58.5969 105.431 55.3861C112.759 51.1942 118.839 45.932 123.669 39.5104V39.4212V39.332V39.2428C123.752 39.332 123.752 39.2428 123.752 39.1536ZM122.42 40.0455C117.756 45.932 111.926 50.9266 105.098 54.7617C94.3546 60.8266 80.9467 64.305 67.289 64.5726C65.3736 64.5726 63.4582 64.5726 61.5428 64.4834C48.1349 63.859 22.9848 59.7563 4.74673 39.5996H40.6398C47.8851 47.0023 60.8766 51.1942 76.2831 51.1942C76.533 51.1942 76.6995 51.1942 76.9493 51.1942C89.5244 51.105 103.182 48.1617 116.423 42.632C118.505 41.9185 120.504 41.0266 122.42 40.0455Z" fill="white" fill-opacity="0.7"/>
</svg>
