<svg width="167" height="62" viewBox="0 0 167 62" fill="none" xmlns="http://www.w3.org/2000/svg">
<path d="M0.499988 13.484L0.993081 16.4431L0.999579 16.4833L1.00008 16.5253L1.00003 17.7951C4.85843 21.1643 8.00802 22.9854 12.1072 24.3425C15.2506 25.3832 18.9477 26.152 23.9586 27.1264L29.4356 28.1869L42.036 30.625L42.2743 30.6707L42.3853 30.8872L45.9083 37.7271C53.1345 51.4782 69.2519 59.2586 87.6577 60.5015C106.052 61.7436 126.621 56.4415 142.598 44.162L142.603 44.1575C146.674 41.122 150.704 38.1162 151.514 37.4096L151.523 37.4016L151.533 37.395C151.836 37.154 152.229 36.9421 152.654 37.0345C153.102 37.132 153.349 37.5112 153.486 37.8817C153.628 38.2656 153.706 38.7776 153.74 39.395C153.773 40.0194 153.762 40.784 153.706 41.6908C153.624 43.0596 153.717 44.3324 153.941 45.2712C154.054 45.7426 154.195 46.1051 154.345 46.3495C154.499 46.6012 154.621 46.6619 154.676 46.6732L154.7 46.678L154.724 46.685C154.881 46.7341 155.122 46.7247 155.474 46.5683C155.823 46.4132 156.233 46.1342 156.691 45.731C157.606 44.9258 158.641 43.6869 159.677 42.1704C161.618 39.3286 163.513 35.5892 164.598 32.1063L164.804 31.4134L164.806 31.4083L165.116 30.3334C165.403 29.3187 165.617 28.4788 165.755 27.7625C165.938 26.8071 165.979 26.1033 165.891 25.5249C165.721 24.4074 165.055 23.6276 163.528 22.3203L163.523 22.3156L163.288 22.1141C162.117 21.1313 160.914 20.5133 159.217 20.1652C157.38 19.7886 154.956 19.7257 151.352 19.8925L151.347 19.8927C147.164 20.0466 143.642 20.5419 140.964 21.1967C139.625 21.5241 138.504 21.8897 137.62 22.2687C136.728 22.6509 136.107 23.0343 135.743 23.3833C135.372 23.7388 135.355 23.9624 135.389 24.0794C135.434 24.2381 135.644 24.51 136.298 24.8006C137.579 25.3699 140.081 25.7934 144.056 25.8465C146.419 25.8574 148.573 26.0039 150.157 26.2193C150.946 26.3267 151.61 26.4531 152.091 26.5943C152.33 26.6641 152.547 26.7439 152.717 26.8386C152.803 26.8859 152.894 26.947 152.973 27.0258C153.05 27.1036 153.143 27.226 153.173 27.3954C153.221 27.6604 153.151 27.9256 153.057 28.1507C152.959 28.3843 152.808 28.6323 152.625 28.888C152.259 29.4005 151.716 30.0011 151.046 30.6594C149.701 31.9791 147.788 33.5834 145.59 35.2626C141.192 38.6212 135.599 42.3172 131.006 44.6827L131.006 44.6814C117.563 51.6631 102.277 54.7862 88.6338 54.216C75.005 53.6464 62.9306 49.3859 56.0081 41.5036L56.001 41.495L55.2276 40.5566C53.4926 38.4086 52.2413 36.5568 51.5114 35.0197C50.6963 33.3031 50.4458 31.7943 51.1864 30.7306C51.286 30.5876 51.4317 30.4694 51.5683 30.3753C51.7139 30.2752 51.8911 30.1738 52.0894 30.073C52.4868 29.8713 53.0029 29.6553 53.5985 29.4389C54.7901 29.006 56.3357 28.5587 57.9706 28.2173C65.08 26.4218 71.1268 22.902 74.9952 18.8633C78.8816 14.8054 80.4803 10.3363 79.0024 6.57619L79.0001 6.571L78.9009 6.33059C78.3668 5.13857 77.2633 4.06206 75.7115 3.16096C74.0617 2.20306 71.9483 1.46957 69.6071 1.01739C64.9201 0.112191 59.4123 0.350136 55.0441 2.0656C49.8581 4.25635 44.978 9.99773 42.8971 16.6645L42.7052 17.3127L40.9506 23.5642L40.8289 23.9971L40.3861 23.922L29.9208 22.1569C25.0032 21.3654 21.313 20.9709 18.3722 20.6334C15.4417 20.2971 13.2216 20.0146 11.2938 19.4407C7.61292 18.3449 5.04836 16.1994 0.500188 10.8863L0.499988 13.484ZM49.6826 16.3537C50.7905 13.2971 53.2872 10.7008 56.3505 8.99697C59.4152 7.29246 63.0906 6.45577 66.6052 6.96674C68.3425 7.20481 69.663 7.386 70.6379 7.56525C71.5909 7.74051 72.2998 7.92711 72.7516 8.21609C72.9929 8.3705 73.1889 8.57087 73.2997 8.83703C73.409 9.09979 73.412 9.37221 73.3698 9.62841C73.2909 10.1069 73.0208 10.689 72.7245 11.3377L72.7237 11.3372C71.9696 13.1583 70.2364 15.0707 67.8972 16.8084C65.5391 18.5601 62.521 20.1685 59.1437 21.355L59.1435 21.3536C57.2766 22.0268 55.6426 22.4335 54.2663 22.5709C52.8961 22.7076 51.7362 22.5834 50.8561 22.1465C49.9495 21.6963 49.3806 20.9339 49.1917 19.9175C49.0079 18.9288 49.1869 17.7273 49.682 16.3545L49.6826 16.3537Z" fill="#3384FF" stroke="black"/>
</svg>
