<svg width="485" height="116" viewBox="0 0 485 116" fill="none" xmlns="http://www.w3.org/2000/svg">
<g clip-path="url(#clip0_5_876)">
<path d="M118.169 168.805C117.808 168.543 117.256 168.273 116.941 168.202C116.383 168.078 116.394 168.062 117.457 167.623C118.054 167.374 118.768 167.022 119.041 166.841C119.315 166.657 119.57 166.541 119.608 166.581C119.647 166.62 119.556 167.004 119.408 167.434C119.257 167.863 119.131 168.458 119.126 168.755C119.116 169.409 119.017 169.413 118.169 168.805ZM123.495 168.365C123.44 168.273 123.541 167.138 123.723 165.842L124.051 163.486L124.991 163.425C126.707 163.313 127.616 164.016 127.616 165.454C127.616 166.51 127.06 167.52 126.239 167.956C125.498 168.348 123.653 168.623 123.495 168.365ZM125.449 167.808C126.091 167.349 126.458 166.478 126.458 165.411C126.458 164.304 126.048 163.585 125.418 163.585C125.011 163.585 124.963 163.713 124.744 165.42C124.615 166.431 124.458 167.449 124.399 167.686C124.263 168.214 124.794 168.275 125.449 167.808ZM128.171 168.418C128.122 168.367 128.173 167.591 128.287 166.695C128.47 165.229 128.536 165.056 128.922 164.999C129.16 164.963 129.355 165.036 129.355 165.16C129.355 165.3 129.519 165.336 129.789 165.253L130.224 165.123L129.807 165.436C129.544 165.633 129.343 166.061 129.266 166.587C129.009 168.316 128.943 168.509 128.6 168.509C128.412 168.509 128.219 168.468 128.171 168.418ZM131.093 168.115C130.214 167.219 130.919 164.963 132.078 164.963C132.179 164.963 132.138 165.162 131.989 165.407C131.617 166.017 131.431 167.459 131.669 167.91C131.777 168.117 132.061 168.324 132.3 168.369C132.615 168.432 132.561 168.464 132.107 168.482C131.709 168.499 131.338 168.365 131.093 168.115ZM134.57 168.115C133.699 167.227 134.523 164.963 135.721 164.963C135.852 164.963 135.829 165.127 135.655 165.407C135.313 165.956 135.076 167.374 135.24 167.896C135.306 168.111 135.509 168.326 135.69 168.375C135.881 168.426 135.796 168.474 135.487 168.485C135.19 168.499 134.786 168.336 134.57 168.115ZM136.436 168.361C136.378 168.269 136.407 167.843 136.499 167.416C136.592 166.988 136.698 166.283 136.737 165.85C136.799 165.162 136.874 165.054 137.328 164.999C137.803 164.944 137.84 164.985 137.747 165.491C137.691 165.797 137.583 166.579 137.508 167.229C137.39 168.235 137.309 168.42 136.953 168.472C136.725 168.505 136.492 168.456 136.436 168.361ZM138.564 168.361C138.516 168.281 138.576 167.504 138.697 166.638C138.893 165.233 138.964 165.056 139.35 164.999C139.657 164.956 139.785 165.036 139.785 165.277C139.785 165.592 139.808 165.594 140.138 165.288C140.554 164.906 141.452 164.857 141.579 165.21C141.651 165.407 141.72 165.407 141.925 165.21C142.064 165.074 142.479 164.963 142.844 164.963H143.509L143.376 166.449C143.221 168.186 143.124 168.509 142.752 168.509C142.329 168.509 142.249 168.054 142.443 166.742C142.638 165.43 142.489 165.119 141.915 165.649C141.684 165.862 141.51 166.395 141.423 167.16C141.338 167.914 141.187 168.381 141.008 168.452C140.463 168.665 140.339 168.225 140.557 166.841C140.782 165.407 140.72 165.156 140.223 165.476C139.756 165.777 139.623 166.122 139.491 167.376C139.393 168.308 139.306 168.509 139.01 168.509C138.811 168.509 138.611 168.442 138.564 168.361ZM144.343 168.346C144.281 168.243 144.33 167.439 144.451 166.561C144.66 165.068 144.704 164.963 145.139 164.963C145.641 164.963 145.641 164.95 145.212 167.621C145.091 168.379 144.608 168.781 144.343 168.346ZM146.263 168.324C146.194 168.21 146.24 167.408 146.364 166.541C146.57 165.093 146.626 164.963 147.034 164.963C147.279 164.963 147.519 165.074 147.567 165.21C147.638 165.407 147.708 165.407 147.913 165.21C148.052 165.074 148.467 164.963 148.832 164.963H149.498L149.365 166.587C149.224 168.314 149.083 168.637 148.565 168.434C148.239 168.308 148.247 167.705 148.596 165.899C148.681 165.46 148.631 165.357 148.328 165.357C147.729 165.357 147.358 165.964 147.186 167.227C147.07 168.082 146.939 168.422 146.707 168.468C146.532 168.503 146.331 168.438 146.263 168.324ZM150.601 168.115C149.746 167.243 150.578 164.963 151.752 164.963C151.89 164.963 151.864 165.158 151.685 165.511C151.316 166.24 151.113 167.394 151.268 167.889C151.337 168.107 151.584 168.326 151.818 168.371C152.114 168.43 152.054 168.464 151.615 168.482C151.217 168.499 150.847 168.365 150.601 168.115ZM152.585 168.352C152.417 168.241 152.398 168.001 152.521 167.516C152.614 167.142 152.749 166.413 152.817 165.899C152.929 165.072 152.998 164.963 153.415 164.963C153.854 164.963 153.881 165.019 153.777 165.702C153.717 166.108 153.605 166.882 153.531 167.424C153.398 168.405 153.105 168.694 152.585 168.352ZM158.366 168.273C158.238 168.143 158.134 167.922 158.134 167.78C158.134 167.593 157.75 167.524 156.709 167.524C155.447 167.524 155.25 167.575 154.992 167.967C154.831 168.212 154.652 168.365 154.594 168.308C154.426 168.145 157.524 163.388 157.794 163.392C157.997 163.394 159.527 167.863 159.496 168.361C159.48 168.6 158.619 168.531 158.366 168.273ZM157.516 165.921L157.114 164.711L156.765 165.182C156.572 165.44 156.232 165.986 156.008 166.392L155.598 167.13H156.757H157.916L157.516 165.921ZM160.543 168.271C160.489 168.125 160.603 166.988 160.796 165.745L161.149 163.486L161.742 163.427L162.333 163.366L162.065 165.101C161.57 168.306 161.541 168.405 161.074 168.474C160.836 168.509 160.599 168.417 160.543 168.271ZM113.758 168.176C113.366 168.023 113.474 167.733 114.264 166.817C115.268 165.655 115.581 164.485 115.309 162.913C115.193 162.253 115.038 161.558 114.963 161.369C114.699 160.699 115.293 161.024 116.188 162.038C117.352 163.36 118.629 163.975 120.217 163.977C120.875 163.979 121.459 164.053 121.515 164.146C121.795 164.609 119.28 166.267 116.607 167.38C114.809 168.131 114.125 168.32 113.758 168.176ZM132.563 166.24C132.895 165.901 133.011 165.621 132.926 165.353C132.781 164.887 133.073 164.843 133.494 165.273C133.956 165.743 133.836 166.108 133.086 166.51C132.31 166.925 132.032 166.784 132.563 166.24ZM145.048 164.231C144.702 164.105 144.749 163.453 145.114 163.309C145.282 163.244 145.5 163.24 145.597 163.301C146.039 163.579 145.548 164.414 145.048 164.231ZM10.1812 68.0338V26.6543L10.7452 26.0771L11.3111 25.502L30.0119 25.5039C40.2991 25.5059 50.2366 25.5965 52.0947 25.7068C57.1997 26.0082 61.3698 26.9734 64.5066 28.5788C70.8728 31.8368 74.8594 37.1454 76.4761 44.5105C76.8121 46.0449 76.8778 47.215 76.9589 53.2288L77.0517 60.1743L75.6822 61.6004L74.3128 63.0266L74.307 56.0338C74.2973 46.2991 74.0095 44.0594 72.2905 40.3503C69.3411 33.9878 64.2052 30.1605 57.0201 28.9727C53.2459 28.3483 50.0589 28.2597 31.5918 28.2597H13.0784L13.0687 36.6805C13.063 41.3115 13.0591 59.0633 13.0591 76.1257C13.0591 93.1881 13.0127 107.345 12.9548 107.581C12.837 108.064 11.0407 109.415 10.5172 109.415C10.1985 109.415 10.1812 107.235 10.1812 68.0338ZM32.4919 109.193C32.4359 109.045 32.4127 94.6969 32.4398 77.3076L32.49 45.6924L42.9201 45.6352C48.6567 45.6057 53.6322 45.6313 53.9779 45.6943L54.6057 45.8086V74.2859V102.761L57.8525 97.6674C59.6372 94.8663 62.9614 89.668 65.2405 86.1185C67.5178 82.5669 69.9457 78.779 70.6371 77.6996C72.3349 75.0423 78.0792 66.1369 83.6902 57.4579C86.2321 53.5302 90.0236 47.6346 92.1174 44.3588C94.2092 41.085 96.104 38.1638 96.3261 37.8683L96.7317 37.3325L97.9292 37.7974C98.6053 38.0614 99.1036 38.3667 99.0708 38.5026C99.007 38.7784 93.8422 46.9648 88.5055 55.2459C87.4238 56.9241 85.728 59.5834 84.7371 61.1552C83.7462 62.7271 81.6158 66.0502 80.0049 68.542C78.396 71.0338 75.9893 74.7567 74.6605 76.8151C69.0707 85.4724 65.059 91.6634 60.0815 99.3141C56.0775 105.466 54.7988 107.577 54.7988 108.03C54.7988 108.359 54.7312 108.627 54.6501 108.627C54.3527 108.627 53.045 107.396 52.7727 106.86C52.4482 106.218 52.1836 92.4258 51.9672 64.7501L51.8378 48.3516H43.5652H35.2907V77.8099C35.2907 109.642 35.3525 107.757 34.2863 108.771C33.7049 109.325 32.6349 109.577 32.4919 109.193Z" fill="#3384FF"/>
<path d="M128.736 6.5918C129.437 6.5918 130.247 7.11406 130.473 7.71484C130.49 7.76212 130.512 7.84283 130.535 7.95312C130.659 8.56975 130.845 10.1066 130.988 11.7139C131.46 17.0084 131.825 19.0332 131.825 19.0332V19.5801L131.857 19.9492C131.859 19.9756 131.983 22.6864 133.028 33.6768C133.233 35.8436 133.751 41.4275 134.178 46.0859C134.605 50.744 135.037 55.3099 135.138 56.2305C135.296 57.6879 135.275 57.9997 134.972 58.6377C134.781 59.0412 134.335 59.4199 134.393 59.4775C134.38 59.4812 132.365 60.0519 129.036 56.8594C127.489 55.3762 125.218 53.2149 123.985 52.0566L121.746 49.9531L120.896 51.7617C120.429 52.7584 119.803 54.1039 119.506 54.7539C119.206 55.4046 117.902 58.1515 116.608 60.8594C113.044 68.3137 112.699 69.0555 112.772 69.1191C112.809 69.1526 113.449 69.3788 114.192 69.625C119.962 71.5377 124.394 76.0924 126.368 82.1338C128.137 87.5487 127.519 94.2812 124.784 99.3691C123.846 101.116 123.195 101.995 121.685 103.557C119.301 106.019 116.45 107.712 112.9 108.773C111.708 109.129 110.47 109.31 109.226 109.312L83.5273 109.366C58.2351 109.419 55.9038 109.397 55.3281 109.1C55.0674 108.964 54.779 108.781 54.4932 108.572C54.5586 108.608 54.6108 108.627 54.6494 108.627C54.7305 108.627 54.7988 108.359 54.7988 108.03C54.7992 107.577 56.0778 105.465 60.0811 99.3145C65.0585 91.6638 69.0705 85.4725 74.6602 76.8154C75.989 74.757 78.3959 71.0338 80.0049 68.542C81.6157 66.0502 83.7465 62.7271 84.7373 61.1553C85.7281 59.5834 87.4233 56.9243 88.5049 55.2461C93.8395 46.9684 99.0026 38.7849 99.0703 38.5029C99.1031 38.367 98.6047 38.0618 97.9287 37.7979L96.7314 37.333L96.3262 37.8682C96.2277 38.0001 95.7985 38.6482 95.1689 39.6172C95.6054 38.9279 95.8952 38.457 96.0361 38.2207L96.6484 37.1826L94.7979 36.5645C93.8669 36.2552 92.366 35.7684 91.3037 35.4336C90.7687 35.2406 90.0848 35.016 89.2119 34.7383C86.3481 33.8284 85.6395 33.4226 85.5273 32.375C85.5158 32.2548 85.5098 32.1262 85.5098 31.9863C85.5117 31.3818 85.6314 30.9172 85.8477 30.6553C86.1779 30.2594 88.7872 28.7503 96.6152 24.4287C100.011 22.5559 103.182 20.7917 105.876 19.2812C107.192 18.5433 108.398 17.8663 109.46 17.2627C110.41 16.723 111.896 15.8837 113.315 15.0801C113.424 15.017 113.524 14.9614 113.613 14.9121C113.673 14.8768 113.732 14.8429 113.79 14.8096C114.344 14.4964 114.878 14.1956 115.352 13.9277C117.157 12.9075 119.417 11.5997 120.373 11.0205C121.402 10.3961 122.608 9.70466 123.778 9.05859C124.35 8.75728 124.906 8.45927 125.395 8.18945C125.582 8.08702 125.768 7.98422 125.951 7.8877C127.22 7.22193 128.235 6.73143 128.613 6.61719C128.667 6.60154 128.709 6.59183 128.736 6.5918ZM52.7744 106.862C52.8652 107.038 53.0662 107.29 53.3057 107.546C53.0604 107.292 52.871 107.053 52.7744 106.862ZM106.5 74.3125C98.6576 74.3125 92.2998 80.8044 92.2998 88.8125C92.2998 96.8206 98.6576 103.312 106.5 103.312C114.342 103.312 120.7 96.8206 120.7 88.8125C120.7 80.8044 114.342 74.3125 106.5 74.3125ZM81.1367 61.4092C77.3239 67.3087 73.7483 72.8537 71.7607 75.9463C73.0316 73.9667 74.5829 71.5559 76.3984 68.7432C77.82 66.5409 79.4022 64.092 81.1367 61.4092Z" fill="#3384FF"/>
</g>
<path d="M154.32 55V21.4H182.016V55H176.064V26.776H160.224V55H154.32ZM207.401 21.16L221.849 55H215.273L204.665 29.32L194.105 55H187.721L202.121 21.16H207.401ZM223.815 55L238.599 21.16H244.071L258.855 55H252.615L249.207 46.888H233.319L229.863 55H223.815ZM235.479 41.656H247.047L241.239 28.216L235.479 41.656ZM268.559 55V26.872H257.855V21.4H285.167V26.872H274.463V55H268.559ZM304.731 55.48V51.832C293.691 51.688 287.355 46.024 287.355 38.104V38.056C287.355 30.232 293.643 24.568 304.731 24.328V20.92H310.635V24.328C321.627 24.568 328.059 30.088 328.059 38.056V38.104C328.059 45.928 321.771 51.688 310.635 51.832V55.48H304.731ZM321.915 38.104V38.056C321.915 33.304 318.219 29.512 310.539 29.512V46.648C318.075 46.648 321.915 43.048 321.915 38.104ZM293.499 38.104V38.152C293.499 43 297.147 46.6 304.827 46.648V29.512C297.147 29.656 293.499 33.112 293.499 38.104ZM350.868 55.576C340.548 55.576 333.348 47.752 333.348 38.296V38.2C333.348 28.792 340.644 20.824 350.964 20.824C361.284 20.824 368.484 28.648 368.484 38.104V38.2C368.484 47.608 361.188 55.576 350.868 55.576ZM350.964 50.104C357.636 50.104 362.292 44.824 362.292 38.296V38.2C362.292 31.672 357.588 26.296 350.868 26.296C344.196 26.296 339.54 31.576 339.54 38.104V38.2C339.54 44.728 344.244 50.104 350.964 50.104ZM375.617 55V21.4H388.865C396.737 21.4 401.633 25.864 401.633 32.632V32.728C401.633 40.216 395.633 44.2 388.193 44.2H381.521V55H375.617ZM381.521 38.872H388.385C392.849 38.872 395.633 36.376 395.633 32.872V32.776C395.633 28.792 392.801 26.776 388.385 26.776H381.521V38.872ZM407.679 55V21.4H413.967L424.191 37.288L434.415 21.4H440.703V55H434.799V30.904L424.191 46.744H423.999L413.487 31V55H407.679ZM446.471 55L461.255 21.16H466.727L481.511 55H475.271L471.863 46.888H455.975L452.519 55H446.471ZM458.135 41.656H469.703L463.895 28.216L458.135 41.656ZM153.195 98V73.15H164.342C167.218 73.15 169.383 73.8955 170.839 75.351C171.939 76.4515 172.507 77.836 172.507 79.469V79.54C172.507 82.5575 170.803 84.1195 168.957 85.078C171.904 86.1075 173.892 87.705 173.892 91.113V91.184C173.892 95.6215 170.235 98 164.697 98H153.195ZM168.141 80.25V80.179C168.141 78.191 166.614 77.0195 163.774 77.0195H157.491V83.6225H163.455C166.295 83.6225 168.141 82.522 168.141 80.25ZM169.525 90.7225V90.6515C169.525 88.5215 167.857 87.3145 164.413 87.3145H157.491V94.1305H164.733C167.715 94.1305 169.525 92.9945 169.525 90.7225ZM190.637 98.426C183.004 98.426 177.679 92.6395 177.679 85.646V85.575C177.679 78.617 183.075 72.724 190.708 72.724C198.34 72.724 203.665 78.5105 203.665 85.504V85.575C203.665 92.533 198.269 98.426 190.637 98.426ZM190.708 94.379C195.642 94.379 199.086 90.474 199.086 85.646V85.575C199.086 80.747 195.607 76.771 190.637 76.771C185.702 76.771 182.259 80.676 182.259 85.504V85.575C182.259 90.403 185.738 94.379 190.708 94.379ZM209.56 79.682L206.898 76.7C209.454 74.428 212.507 72.724 216.98 72.724C222.624 72.724 226.103 75.351 226.103 79.398V79.4335C226.103 82.522 224.435 84.297 221.559 85.2555C224.648 86.001 226.742 87.7405 226.742 91.113V91.1485C226.742 95.302 222.979 98.426 216.625 98.426C212.187 98.426 208.921 96.864 206.472 94.734L209.063 91.5745C211.193 93.2785 213.607 94.521 216.731 94.521C219.997 94.521 222.305 93.1365 222.305 90.829V90.7935C222.305 88.5215 220.175 87.279 216.625 87.3145H212.152V83.6225H216.696C219.713 83.6225 221.666 82.309 221.666 80.037V80.0015C221.666 77.907 219.855 76.629 216.873 76.629C213.998 76.629 211.655 77.9425 209.56 79.682ZM231.857 98V73.15H236.507L244.069 84.9005L251.63 73.15H256.281V98H251.914V80.179L244.069 91.894H243.927L236.152 80.25V98H231.857ZM274.533 98.426C266.901 98.426 261.576 92.6395 261.576 85.646V85.575C261.576 78.617 266.972 72.724 274.604 72.724C282.237 72.724 287.562 78.5105 287.562 85.504V85.575C287.562 92.533 282.166 98.426 274.533 98.426ZM274.604 94.379C279.539 94.379 282.982 90.474 282.982 85.646V85.575C282.982 80.747 279.503 76.771 274.533 76.771C269.599 76.771 266.155 80.676 266.155 85.504V85.575C266.155 90.403 269.634 94.379 274.604 94.379ZM288.87 73.15H294.124L302.857 83.5515H304.845L304.81 73.15H309.141L309.105 83.5515H311.093L319.862 73.15H325.08L314.714 85.2555L325.755 98H320.501L311.306 87.279H309.105L309.141 98H304.81L304.845 87.279H302.538L293.379 98H288.231L299.272 85.2555L288.87 73.15ZM329.343 98V73.15H333.709V83.4805H345.566V73.15H349.933V98H345.566V87.5275H333.709V98H329.343ZM368.172 98.426C360.539 98.426 355.214 92.6395 355.214 85.646V85.575C355.214 78.617 360.61 72.724 368.243 72.724C375.875 72.724 381.2 78.5105 381.2 85.504V85.575C381.2 92.533 375.804 98.426 368.172 98.426ZM368.243 94.379C373.177 94.379 376.621 90.474 376.621 85.646V85.575C376.621 80.747 373.142 76.771 368.172 76.771C363.237 76.771 359.794 80.676 359.794 85.504V85.575C359.794 90.403 363.273 94.379 368.243 94.379ZM398.013 98.426C390.771 98.426 385.375 92.7815 385.375 85.646V85.575C385.375 78.5105 390.665 72.724 398.155 72.724C402.77 72.724 405.539 74.3215 407.918 76.5935L405.113 79.824C403.09 77.978 400.995 76.771 398.12 76.771C393.434 76.771 389.955 80.6405 389.955 85.504V85.575C389.955 90.4385 393.398 94.379 398.155 94.379C401.173 94.379 403.161 93.172 405.291 91.184L408.095 94.024C405.575 96.7575 402.628 98.426 398.013 98.426ZM418.79 98V77.197H410.873V73.15H431.073V77.197H423.156V98H418.79ZM435.6 98V73.15H454.025V77.055H439.967V83.516H452.427V87.4565H439.967V94.095H454.202V98H435.6ZM470.21 71.162C466.802 71.162 464.353 69.4935 464.069 66.405H467.122C467.548 67.5055 468.4 68.18 470.21 68.18C472.021 68.18 472.873 67.5055 473.299 66.405H476.352C476.068 69.4935 473.618 71.162 470.21 71.162ZM481.038 98H476.671V80.037L463.181 98H459.383V73.15H463.749V90.6515L476.849 73.15H481.038V98Z" fill="#3384FF"/>
<defs>
<clipPath id="clip0_5_876">
<rect width="142" height="116" fill="white"/>
</clipPath>
</defs>
</svg>
