<svg width="203" height="41" viewBox="0 0 203 41" fill="none" xmlns="http://www.w3.org/2000/svg">
<g clip-path="url(#clip0_27_652)">
<path d="M39.9445 58.5416C39.8224 58.4513 39.6357 58.3582 39.5292 58.3338C39.3406 58.291 39.3445 58.2856 39.7036 58.1341C39.9053 58.0485 40.1469 57.9269 40.2389 57.8644C40.3317 57.8013 40.4178 57.7612 40.4309 57.7748C40.444 57.7884 40.4133 57.9208 40.363 58.0689C40.3121 58.217 40.2696 58.4221 40.2677 58.5247C40.2644 58.7502 40.2311 58.7515 39.9445 58.5416ZM41.7445 58.3902C41.7263 58.3582 41.7602 57.967 41.8216 57.5201L41.9326 56.7077L42.2505 56.6866C42.8303 56.6479 43.1378 56.8904 43.1378 57.3863C43.1378 57.7503 42.9498 58.0988 42.6723 58.2489C42.4216 58.3841 41.7981 58.4792 41.7445 58.3902ZM42.4053 58.1979C42.622 58.0397 42.7461 57.7395 42.7461 57.3713C42.7461 56.9896 42.6077 56.7417 42.3948 56.7417C42.2571 56.7417 42.2407 56.7858 42.167 57.3747C42.1232 57.7232 42.0703 58.0743 42.0501 58.1558C42.0044 58.3379 42.1839 58.3589 42.4053 58.1979ZM43.3252 58.4085C43.3089 58.3909 43.3259 58.1232 43.3644 57.8142C43.4264 57.3088 43.4486 57.2491 43.5792 57.2294C43.6595 57.2171 43.7254 57.2423 43.7254 57.285C43.7254 57.3333 43.7809 57.3455 43.8723 57.317L44.0192 57.2721L43.8782 57.3801C43.7894 57.4481 43.7215 57.5955 43.6954 57.7768C43.6086 58.3732 43.5864 58.4398 43.4702 58.4398C43.4068 58.4398 43.3415 58.4255 43.3252 58.4085ZM44.3131 58.3039C44.016 57.9949 44.2543 57.2171 44.646 57.2171C44.68 57.2171 44.6663 57.2857 44.616 57.37C44.49 57.5805 44.4273 58.0777 44.5076 58.2333C44.5442 58.3046 44.6402 58.3759 44.7211 58.3915C44.8275 58.4133 44.8093 58.4241 44.6558 58.4302C44.5213 58.4364 44.396 58.3902 44.3131 58.3039ZM45.4883 58.3039C45.1938 57.9976 45.4726 57.2171 45.8774 57.2171C45.9218 57.2171 45.914 57.2735 45.8552 57.37C45.7396 57.5595 45.6593 58.0485 45.7148 58.2285C45.737 58.3026 45.8056 58.3766 45.867 58.3936C45.9316 58.4112 45.9029 58.4275 45.7984 58.4316C45.6979 58.4364 45.5614 58.38 45.4883 58.3039ZM46.119 58.3888C46.0994 58.3569 46.1092 58.2102 46.1405 58.0628C46.1719 57.9154 46.2078 57.6722 46.2208 57.5228C46.2417 57.2857 46.2672 57.2484 46.4206 57.2294C46.5812 57.2103 46.5936 57.2246 46.5623 57.3992C46.5434 57.5044 46.5068 57.7741 46.4813 57.9982C46.4415 58.3453 46.4141 58.4092 46.294 58.4268C46.2169 58.4384 46.1379 58.4214 46.119 58.3888ZM46.8385 58.3888C46.8222 58.361 46.8424 58.0933 46.8835 57.7945C46.9495 57.3102 46.9736 57.2491 47.1042 57.2294C47.208 57.2144 47.2511 57.2423 47.2511 57.3251C47.2511 57.4338 47.2589 57.4345 47.3706 57.3292C47.511 57.1974 47.8146 57.1804 47.8577 57.302C47.8818 57.37 47.9053 57.37 47.9745 57.302C48.0215 57.2552 48.1619 57.2171 48.2853 57.2171H48.5099L48.4649 57.7293C48.4126 58.3284 48.38 58.4398 48.254 58.4398C48.111 58.4398 48.0842 58.2829 48.1495 57.8305C48.2154 57.3781 48.1652 57.2708 47.9713 57.4535C47.8929 57.5269 47.8342 57.7109 47.8048 57.9745C47.776 58.2346 47.7251 58.3956 47.6644 58.4201C47.4803 58.4934 47.4385 58.3419 47.5123 57.8644C47.588 57.37 47.5671 57.2837 47.3993 57.3937C47.2413 57.4977 47.1963 57.6165 47.1519 58.0492C47.1186 58.3705 47.0892 58.4398 46.9893 58.4398C46.922 58.4398 46.8541 58.4167 46.8385 58.3888ZM48.792 58.3834C48.7711 58.3481 48.7874 58.0709 48.8285 57.768C48.899 57.2531 48.914 57.2171 49.061 57.2171C49.2307 57.2171 49.2307 57.2124 49.0858 58.1334C49.0446 58.3949 48.8814 58.5335 48.792 58.3834ZM49.4409 58.3759C49.4174 58.3365 49.4331 58.0601 49.4749 57.7612C49.5448 57.262 49.5637 57.2171 49.7015 57.2171C49.7844 57.2171 49.8653 57.2552 49.8817 57.302C49.9058 57.37 49.9293 57.37 49.9985 57.302C50.0455 57.2552 50.1859 57.2171 50.3093 57.2171H50.5346L50.4895 57.7768C50.4418 58.3725 50.3942 58.4839 50.2192 58.4139C50.1089 58.3705 50.1115 58.1626 50.2296 57.5398C50.2584 57.3883 50.2414 57.353 50.1389 57.353C49.9365 57.353 49.8111 57.5622 49.753 57.9976C49.7139 58.2924 49.6695 58.4099 49.5911 58.4255C49.5317 58.4377 49.4638 58.4153 49.4409 58.3759ZM50.9074 58.3039C50.6181 58.003 50.8995 57.2171 51.2965 57.2171C51.3429 57.2171 51.3344 57.2844 51.2736 57.406C51.1489 57.6573 51.0804 58.0553 51.1326 58.2258C51.1561 58.3012 51.2397 58.3766 51.3187 58.3922C51.4186 58.4126 51.3983 58.4241 51.2501 58.4302C51.1156 58.4364 50.9903 58.3902 50.9074 58.3039ZM51.5779 58.3854C51.5211 58.3474 51.5146 58.2645 51.5564 58.0974C51.5877 57.9684 51.6334 57.717 51.6562 57.5398C51.6941 57.2545 51.7176 57.2171 51.8586 57.2171C52.0068 57.2171 52.016 57.2361 51.9807 57.4718C51.9605 57.6118 51.9226 57.8787 51.8978 58.0655C51.8528 58.4038 51.7535 58.5036 51.5779 58.3854ZM53.532 58.3582C53.4889 58.3134 53.4537 58.2373 53.4537 58.1884C53.4537 58.1239 53.3237 58.1001 52.9718 58.1001C52.5455 58.1001 52.4789 58.1178 52.3914 58.253C52.3372 58.3372 52.2765 58.3902 52.2569 58.3705C52.2001 58.3141 53.2474 56.6737 53.3388 56.6751C53.4073 56.6758 53.9244 58.217 53.914 58.3888C53.9087 58.471 53.6176 58.4472 53.532 58.3582ZM53.2447 57.5472L53.1089 57.1302L52.9908 57.2925C52.9255 57.3815 52.8106 57.5696 52.7348 57.7096L52.5964 57.9643H52.9882H53.3799L53.2447 57.5472ZM54.2678 58.3576C54.2496 58.3073 54.2881 57.9154 54.3534 57.4868L54.4729 56.7077L54.6733 56.6873L54.8731 56.6663L54.7823 57.2647C54.6152 58.3698 54.6054 58.4038 54.4474 58.4275C54.3671 58.4398 54.2868 58.4078 54.2678 58.3576ZM38.4533 58.325C38.3207 58.272 38.3573 58.1721 38.6243 57.8563C38.9638 57.4555 39.0696 57.0521 38.9775 56.51C38.9384 56.2825 38.8861 56.0427 38.8607 55.9775C38.7712 55.7466 38.9723 55.8586 39.2746 56.2085C39.6683 56.6642 40.0999 56.8761 40.6366 56.8768C40.8592 56.8775 41.0564 56.9033 41.0753 56.9352C41.17 57.0949 40.3199 57.6668 39.4163 58.0506C38.8084 58.3093 38.5773 58.3745 38.4533 58.325ZM44.8099 57.6573C44.9222 57.5404 44.9614 57.444 44.9327 57.3516C44.8837 57.1906 44.9823 57.1757 45.1246 57.3238C45.2807 57.4861 45.2402 57.6118 44.9868 57.7503C44.7244 57.8936 44.6304 57.8447 44.8099 57.6573ZM49.0303 56.9645C48.9134 56.921 48.9291 56.6961 49.0525 56.6466C49.1093 56.6241 49.183 56.6228 49.2157 56.6438C49.3652 56.7396 49.1994 57.0276 49.0303 56.9645ZM3.44141 23.7931V9.52431L3.63205 9.32529L3.82335 9.12695L10.1447 9.12763C13.6221 9.12831 16.9813 9.15956 17.6094 9.19759C19.335 9.30152 20.7446 9.63434 21.8049 10.1879C23.9569 11.3114 25.3045 13.1419 25.851 15.6816C25.9646 16.2107 25.9868 16.6142 26.0142 18.6879L26.0455 21.0829L25.5826 21.5747L25.1197 22.0665L25.1177 19.6552C25.1145 16.2984 25.0172 15.5261 24.4361 14.2471C23.4391 12.0531 21.7031 10.7334 19.2743 10.3238C17.9985 10.1085 16.9212 10.0779 10.6788 10.0779H4.42076L4.41749 12.9816C4.41554 14.5785 4.41423 20.6998 4.41423 26.5834C4.41423 32.467 4.39856 37.3487 4.37897 37.4302C4.33915 37.5966 3.73195 38.0626 3.55501 38.0626C3.44728 38.0626 3.44141 37.3106 3.44141 23.7931ZM10.9831 37.9858C10.9641 37.9349 10.9563 32.9873 10.9654 26.991L10.9824 16.0892L14.5081 16.0695C16.4472 16.0593 18.1291 16.0681 18.246 16.0898L18.4581 16.1292V25.949V35.7681L19.5557 34.0116C20.159 33.0457 21.2826 31.2532 22.053 30.0292C22.8228 28.8045 23.6435 27.4984 23.8772 27.1261C24.4511 26.2098 26.3929 23.139 28.2895 20.1463C29.1488 18.7919 30.4304 16.7589 31.1382 15.6293C31.8452 14.5004 32.4857 13.4931 32.5608 13.3912L32.6979 13.2065L33.1027 13.3668C33.3312 13.4578 33.4997 13.5631 33.4886 13.6099C33.4671 13.705 31.7212 16.5279 29.9172 19.3835C29.5516 19.9622 28.9784 20.8792 28.6434 21.4212C28.3085 21.9632 27.5883 23.1091 27.0438 23.9683C26.4999 24.8276 25.6864 26.1113 25.2372 26.8211C23.3477 29.8064 21.9917 31.9413 20.3091 34.5794C18.9557 36.7007 18.5234 37.4288 18.5234 37.5851C18.5234 37.6985 18.5006 37.7909 18.4732 37.7909C18.3726 37.7909 17.9306 37.3663 17.8385 37.1816C17.7289 36.9602 17.6394 32.2041 17.5663 22.6608L17.5225 17.0061H14.7262H11.9291V27.1642C11.9291 38.1407 11.95 37.4906 11.5896 37.8405C11.3931 38.0313 11.0314 38.1183 10.9831 37.9858Z" fill="#3384FF"/>
<path d="M43.5166 2.60742C43.7535 2.60745 44.0271 2.78704 44.1035 2.99414C44.1094 3.01039 44.1162 3.03833 44.124 3.07617C44.1658 3.28877 44.23 3.81881 44.2783 4.37305C44.4376 6.19884 44.5605 6.89746 44.5605 6.89746V7.08594L44.5713 7.21289C44.5713 7.21289 44.6126 8.13807 44.9678 11.9463C45.037 12.6934 45.2112 14.6192 45.3555 16.2256C45.4997 17.8315 45.6467 19.4058 45.6807 19.7236C45.7342 20.2261 45.7264 20.3338 45.624 20.5537C45.5675 20.6754 45.4455 20.7908 45.4287 20.8311V20.8438C45.4287 20.8438 44.747 21.0448 43.6182 19.9404C43.0952 19.429 42.3267 18.6836 41.9102 18.2842L41.1533 17.5596L40.8662 18.1826C40.7082 18.5263 40.497 18.9907 40.3965 19.2148C40.2951 19.4394 39.8543 20.3866 39.417 21.3203C38.2158 23.8833 38.0963 24.1447 38.1201 24.168C38.1325 24.1795 38.3492 24.2579 38.6006 24.3428C40.5506 25.0024 42.0486 26.5731 42.7158 28.6562C43.3138 30.5234 43.1051 32.8452 42.1807 34.5996C41.8635 35.2018 41.6432 35.5045 41.1328 36.043C40.3271 36.892 39.3631 37.4757 38.1631 37.8418C37.7601 37.9643 37.3411 38.0274 36.9199 38.0283L28.2344 38.0469C19.685 38.0652 18.8967 38.0576 18.7021 37.9551C18.614 37.9082 18.5165 37.8444 18.4199 37.7725C18.4421 37.7847 18.4606 37.792 18.4736 37.792C18.5009 37.791 18.5234 37.6988 18.5234 37.5859C18.5234 37.4297 18.9561 36.7013 20.3096 34.5801C21.992 31.9421 23.3479 29.8073 25.2373 26.8223C25.6865 26.1125 26.5001 24.828 27.0439 23.9688C27.5884 23.1096 28.3087 21.9638 28.6436 21.4219C28.9784 20.8799 29.5514 19.9634 29.917 19.3848C31.721 16.5292 33.4667 13.7054 33.4883 13.6104C33.4984 13.5633 33.3305 13.458 33.1025 13.3672L32.6982 13.207L32.5605 13.3926C32.5266 13.4391 32.382 13.6621 32.1699 13.9951C32.3174 13.7575 32.4152 13.5952 32.4629 13.5137L32.6699 13.1553L32.0439 12.9424C31.7292 12.8357 31.2222 12.6682 30.8633 12.5527C30.6824 12.4862 30.4514 12.4083 30.1562 12.3125C29.1883 11.9988 28.9481 11.8592 28.9102 11.498C28.9062 11.4567 28.9043 11.4123 28.9043 11.3643C28.905 11.1557 28.9454 10.9946 29.0186 10.9043C29.1305 10.7676 30.0136 10.2477 32.6592 8.75781C33.8431 8.09181 34.9456 7.46507 35.874 6.93359C36.2857 6.69792 36.6649 6.48091 37.001 6.28613C37.3222 6.10003 37.8241 5.81115 38.3037 5.53418C38.3402 5.51248 38.3743 5.49352 38.4043 5.47656C38.4245 5.46434 38.4453 5.45198 38.4648 5.44043C38.652 5.33254 38.8324 5.22901 38.9922 5.13672C39.6026 4.78488 40.3663 4.33347 40.6895 4.13379C41.0374 3.91849 41.4452 3.68078 41.8408 3.45801C42.0339 3.35415 42.2216 3.25121 42.3867 3.1582C42.4501 3.12288 42.5132 3.08699 42.5752 3.05371C43.0038 2.82432 43.3465 2.65572 43.4746 2.61621C43.4929 2.61078 43.5075 2.60742 43.5166 2.60742ZM17.8389 37.1836C17.8696 37.244 17.9377 37.3308 18.0186 37.4189C17.9358 37.3314 17.8715 37.2494 17.8389 37.1836ZM36 25.959C33.3491 25.959 31.2002 28.1976 31.2002 30.959C31.2002 33.7204 33.349 35.959 36 35.959C38.651 35.959 40.7998 33.7204 40.7998 30.959C40.7998 28.1976 38.6509 25.959 36 25.959ZM24.2568 26.5225C24.6864 25.8398 25.2115 25.008 25.8252 24.0381C26.3057 23.2788 26.8406 22.4347 27.4268 21.5098C26.1379 23.5441 24.9287 25.4561 24.2568 26.5225Z" fill="#3384FF"/>
</g>
<path d="M57.68 19V5H69.42V19H66.34V7.8H60.76V19H57.68ZM80.1577 4.9L86.0177 19H82.6177L78.7377 9.22L74.8977 19H71.5777L77.4377 4.9H80.1577ZM86.5777 19L92.5777 4.9H95.4177L101.418 19H98.1977L96.9177 15.86H90.9977L89.7177 19H86.5777ZM92.0977 13.14H95.8177L93.9577 8.6L92.0977 13.14ZM105.042 19V7.84H100.782V5H112.382V7.84H108.122V19H105.042ZM120.49 19.16V17.76C115.85 17.7 113.23 15.28 113.23 11.98V11.96C113.23 8.68 115.85 6.26 120.49 6.16V4.84H123.57V6.16C128.15 6.26 130.83 8.62 130.83 11.94V11.96C130.83 15.22 128.21 17.7 123.57 17.76V19.16H120.49ZM127.63 11.96V11.94C127.63 10.18 126.31 8.86 123.51 8.84V15.08C126.31 15.06 127.63 13.8 127.63 11.96ZM116.43 11.96V11.98C116.43 13.74 117.75 15.08 120.55 15.08V8.84C117.75 8.86 116.43 10.14 116.43 11.96ZM140.261 19.24C135.941 19.24 132.841 16.02 132.841 12.04V12C132.841 8.02 135.981 4.76 140.301 4.76C144.621 4.76 147.721 7.98 147.721 11.96V12C147.721 15.98 144.581 19.24 140.261 19.24ZM140.301 16.4C142.781 16.4 144.501 14.44 144.501 12.04V12C144.501 9.6 142.741 7.6 140.261 7.6C137.781 7.6 136.061 9.56 136.061 11.96V12C136.061 14.4 137.821 16.4 140.301 16.4ZM150.453 19V5H156.173C159.513 5 161.533 6.96 161.533 9.84V9.88C161.533 13.14 159.013 14.8 155.873 14.8H153.533V19H150.453ZM153.533 12.06H155.973C157.513 12.06 158.413 11.14 158.413 9.94V9.9C158.413 8.52 157.453 7.78 155.913 7.78H153.533V12.06ZM163.813 19V5H167.133L170.813 10.92L174.493 5H177.813V19H174.753V9.86L170.813 15.84H170.733L166.833 9.92V19H163.813ZM179.976 19L185.976 4.9H188.816L194.816 19H191.596L190.316 15.86H184.396L183.116 19H179.976ZM185.496 13.14H189.216L187.356 8.6L185.496 13.14ZM57.2432 37V26.64H62.0532C63.252 26.64 64.1548 26.9508 64.7616 27.5576C65.2352 28.0312 65.472 28.6232 65.472 29.3188V29.3484C65.472 30.5028 64.8504 31.1984 64.1104 31.5832C65.3092 32.042 66.0492 32.7524 66.0492 34.1288V34.1584C66.0492 36.0528 64.51 37 62.1716 37H57.2432ZM63.2076 29.7332V29.7036C63.2076 29.008 62.6748 28.638 61.7128 28.638H59.4632V30.8284H61.5648C62.5712 30.8284 63.2076 30.5028 63.2076 29.7332ZM63.7848 33.8772V33.8476C63.7848 33.152 63.2816 32.7228 62.0976 32.7228H59.4632V35.002H62.1716C63.178 35.002 63.7848 34.6468 63.7848 33.8772ZM72.9561 37.1776C69.7593 37.1776 67.4653 34.7948 67.4653 31.8496V31.82C67.4653 28.8748 69.7889 26.4624 72.9857 26.4624C76.1825 26.4624 78.4765 28.8452 78.4765 31.7904V31.82C78.4765 34.7652 76.1529 37.1776 72.9561 37.1776ZM72.9857 35.076C74.8209 35.076 76.0937 33.6256 76.0937 31.8496V31.82C76.0937 30.044 74.7913 28.564 72.9561 28.564C71.1209 28.564 69.8481 30.0144 69.8481 31.7904V31.82C69.8481 33.596 71.1505 35.076 72.9857 35.076ZM81.0824 29.7184L79.706 28.1792C80.8752 27.1284 82.1332 26.4624 83.9832 26.4624C86.4696 26.4624 87.8756 27.5428 87.8756 29.2596V29.2744C87.8756 30.6212 87.18 31.2428 86.1144 31.672C87.3132 31.9976 88.1568 32.6192 88.1568 34.0844V34.0992C88.1568 35.8604 86.588 37.1776 83.8352 37.1776C81.9408 37.1776 80.5644 36.5116 79.5136 35.5792L80.8604 33.9512C81.7484 34.6468 82.7104 35.1352 83.8944 35.1352C85.0192 35.1352 85.848 34.7356 85.848 33.9068V33.892C85.848 33.1372 85.1228 32.708 83.8796 32.7228H81.9704V30.8284H83.9388C85.0044 30.8284 85.5668 30.3252 85.5668 29.6148V29.6C85.5668 28.9044 84.96 28.49 83.9388 28.5048C82.8732 28.5048 81.9556 29.008 81.0824 29.7184ZM90.0952 37V26.64H92.552L95.2752 31.0208L97.9984 26.64H100.455V37H98.1908V30.2364L95.2752 34.6616H95.216L92.33 30.2808V37H90.0952ZM107.976 37.1776C104.779 37.1776 102.485 34.7948 102.485 31.8496V31.82C102.485 28.8748 104.809 26.4624 108.006 26.4624C111.202 26.4624 113.496 28.8452 113.496 31.7904V31.82C113.496 34.7652 111.173 37.1776 107.976 37.1776ZM108.006 35.076C109.841 35.076 111.114 33.6256 111.114 31.8496V31.82C111.114 30.044 109.811 28.564 107.976 28.564C106.141 28.564 104.868 30.0144 104.868 31.7904V31.82C104.868 33.596 106.17 35.076 108.006 35.076ZM113.91 26.64H116.618L119.978 30.8284H120.451L120.436 26.64H122.686L122.656 30.8284H123.16L126.534 26.64H129.213L125.024 31.7016L129.583 37H126.874L123.263 32.7524H122.656L122.686 37H120.436L120.451 32.7524H119.8L116.218 37H113.54L118.113 31.7016L113.91 26.64ZM130.896 37V26.64H133.176V30.7396H137.379V26.64H139.658V37H137.379V32.8412H133.176V37H130.896ZM147.173 37.1776C143.976 37.1776 141.682 34.7948 141.682 31.8496V31.82C141.682 28.8748 144.006 26.4624 147.202 26.4624C150.399 26.4624 152.693 28.8452 152.693 31.7904V31.82C152.693 34.7652 150.37 37.1776 147.173 37.1776ZM147.202 35.076C149.038 35.076 150.31 33.6256 150.31 31.8496V31.82C150.31 30.044 149.008 28.564 147.173 28.564C145.338 28.564 144.065 30.0144 144.065 31.7904V31.82C144.065 33.596 145.367 35.076 147.202 35.076ZM159.569 37.1776C156.521 37.1776 154.256 34.8244 154.256 31.8496V31.82C154.256 28.8748 156.476 26.4624 159.658 26.4624C161.597 26.4624 162.796 27.1136 163.743 28.0608L162.293 29.7332C161.479 29.008 160.694 28.564 159.643 28.564C157.897 28.564 156.639 30.0144 156.639 31.7904V31.82C156.639 33.596 157.867 35.076 159.643 35.076C160.827 35.076 161.553 34.6172 162.367 33.8624L163.817 35.3276C162.751 36.4672 161.582 37.1776 159.569 37.1776ZM168.054 37V28.7416H164.902V26.64H173.486V28.7416H170.333V37H168.054ZM175.239 37V26.64H183.053V28.6676H177.503V30.7692H182.387V32.7968H177.503V34.9724H183.127V37H175.239ZM194.359 37H192.08V30.2364L187.166 37H185.153V26.64H187.433V33.1964L192.183 26.64H194.359V37ZM189.756 25.8556C188.173 25.8556 187.077 25.0712 186.944 23.6504H188.483C188.661 24.1092 189.001 24.3756 189.756 24.3756C190.511 24.3756 190.851 24.1092 191.029 23.6504H192.568C192.435 25.0712 191.34 25.8556 189.756 25.8556Z" fill="#3384FF"/>
<defs>
<clipPath id="clip0_27_652">
<rect width="48" height="40" fill="white" transform="translate(0 0.5)"/>
</clipPath>
</defs>
</svg>
