<svg width="189" height="48" viewBox="0 0 189 48" fill="none" xmlns="http://www.w3.org/2000/svg">
<rect width="189" height="48" rx="16" fill="#3384FF"/>
<g clip-path="url(#clip0_27_384)">
<path d="M48.6159 58.3873C48.504 58.306 48.3329 58.2222 48.2353 58.2002C48.0623 58.1617 48.0659 58.1568 48.3951 58.0205C48.58 57.9435 48.8015 57.834 48.8859 57.7778C48.9708 57.7209 49.0499 57.6849 49.0618 57.6971C49.0738 57.7093 49.0457 57.8285 48.9996 57.9618C48.9529 58.0951 48.914 58.2797 48.9122 58.372C48.9092 58.575 48.8787 58.5762 48.6159 58.3873ZM50.266 58.251C50.2492 58.2222 50.2804 57.8701 50.3366 57.4679L50.4384 56.7367L50.7298 56.7178C51.2613 56.6829 51.5432 56.9012 51.5432 57.3474C51.5432 57.6751 51.3708 57.9887 51.1165 58.1238C50.8866 58.2455 50.3151 58.331 50.266 58.251ZM50.8717 58.078C51.0704 57.9355 51.1841 57.6653 51.1841 57.334C51.1841 56.9904 51.0572 56.7673 50.8621 56.7673C50.7358 56.7673 50.7208 56.807 50.6532 57.337C50.6131 57.6506 50.5646 57.9667 50.5461 58.0401C50.5042 58.2039 50.6688 58.2228 50.8717 58.078ZM51.7149 58.2675C51.7 58.2516 51.7155 58.0107 51.7508 57.7326C51.8077 57.2777 51.8281 57.2239 51.9478 57.2062C52.0214 57.1952 52.0818 57.2178 52.0818 57.2563C52.0818 57.2997 52.1327 57.3108 52.2165 57.2851L52.3511 57.2447L52.2219 57.3419C52.1405 57.4031 52.0782 57.5357 52.0543 57.6989C51.9747 58.2357 51.9543 58.2956 51.8478 58.2956C51.7898 58.2956 51.7299 58.2827 51.7149 58.2675ZM52.6205 58.1733C52.3482 57.8952 52.5666 57.1952 52.9257 57.1952C52.9568 57.1952 52.9442 57.257 52.8982 57.3328C52.7827 57.5223 52.7252 57.9698 52.7988 58.1097C52.8323 58.1739 52.9203 58.2381 52.9945 58.2522C53.0921 58.2717 53.0753 58.2815 52.9347 58.287C52.8114 58.2925 52.6965 58.251 52.6205 58.1733ZM53.6978 58.1733C53.4278 57.8976 53.6834 57.1952 54.0545 57.1952C54.0952 57.1952 54.088 57.246 54.0341 57.3328C53.9282 57.5033 53.8546 57.9435 53.9054 58.1055C53.9258 58.1721 53.9886 58.2387 54.0449 58.254C54.1041 58.2699 54.0778 58.2846 53.982 58.2882C53.8899 58.2925 53.7648 58.2418 53.6978 58.1733ZM54.2759 58.2497C54.2579 58.221 54.2669 58.089 54.2956 57.9563C54.3244 57.8237 54.3573 57.6048 54.3693 57.4703C54.3884 57.257 54.4118 57.2233 54.5524 57.2062C54.6996 57.1891 54.711 57.2019 54.6823 57.359C54.6649 57.4538 54.6314 57.6965 54.6081 57.8982C54.5716 58.2106 54.5464 58.2681 54.4363 58.284C54.3657 58.2944 54.2932 58.2791 54.2759 58.2497ZM54.9354 58.2497C54.9205 58.2247 54.939 57.9838 54.9767 57.7148C55.0372 57.279 55.0593 57.2239 55.179 57.2062C55.2742 57.1928 55.3137 57.2178 55.3137 57.2924C55.3137 57.3902 55.3209 57.3908 55.4232 57.2961C55.5519 57.1775 55.8302 57.1622 55.8697 57.2716C55.8918 57.3328 55.9134 57.3328 55.9768 57.2716C56.0199 57.2294 56.1486 57.1952 56.2617 57.1952H56.4676L56.4263 57.6561C56.3784 58.1953 56.3485 58.2956 56.233 58.2956C56.1019 58.2956 56.0774 58.1544 56.1372 57.7472C56.1977 57.3401 56.1516 57.2435 55.9738 57.408C55.902 57.474 55.8481 57.6396 55.8212 57.8768C55.7949 58.111 55.7482 58.2559 55.6925 58.2779C55.5238 58.3439 55.4855 58.2076 55.5531 57.7778C55.6225 57.3328 55.6034 57.2551 55.4495 57.3542C55.3047 57.4477 55.2634 57.5547 55.2227 57.9441C55.1922 58.2332 55.1653 58.2956 55.0737 58.2956C55.012 58.2956 54.9498 58.2748 54.9354 58.2497ZM56.7261 58.2448C56.707 58.2131 56.7219 57.9636 56.7596 57.691C56.8243 57.2276 56.838 57.1952 56.9727 57.1952C57.1283 57.1952 57.1283 57.1909 56.9954 58.0199C56.9577 58.2552 56.8081 58.3799 56.7261 58.2448ZM57.321 58.2381C57.2995 58.2027 57.3139 57.9539 57.3522 57.6849C57.4162 57.2356 57.4335 57.1952 57.5598 57.1952C57.6358 57.1952 57.71 57.2294 57.725 57.2716C57.7472 57.3328 57.7687 57.3328 57.8321 57.2716C57.8752 57.2294 58.0039 57.1952 58.117 57.1952H58.3235L58.2822 57.6989C58.2385 58.2351 58.1948 58.3353 58.0344 58.2724C57.9333 58.2332 57.9357 58.0462 58.044 57.4856C58.0703 57.3493 58.0548 57.3175 57.9608 57.3175C57.7753 57.3175 57.6604 57.5058 57.6071 57.8976C57.5712 58.1629 57.5305 58.2687 57.4587 58.2827C57.4042 58.2938 57.342 58.2736 57.321 58.2381ZM58.6652 58.1733C58.4001 57.9025 58.6581 57.1952 59.022 57.1952C59.0644 57.1952 59.0567 57.2557 59.001 57.3652C58.8867 57.5914 58.8238 57.9496 58.8717 58.103C58.8933 58.1709 58.9699 58.2387 59.0423 58.2528C59.1339 58.2711 59.1153 58.2815 58.9795 58.287C58.8562 58.2925 58.7413 58.251 58.6652 58.1733ZM59.2799 58.2467C59.2278 58.2124 59.2218 58.1379 59.2602 57.9875C59.2889 57.8713 59.3308 57.6451 59.3517 57.4856C59.3864 57.2288 59.408 57.1952 59.5373 57.1952C59.6731 57.1952 59.6815 57.2123 59.6492 57.4245C59.6306 57.5504 59.5959 57.7906 59.5732 57.9587C59.5319 58.2632 59.4409 58.353 59.2799 58.2467ZM61.0712 58.2222C61.0317 58.1819 60.9994 58.1134 60.9994 58.0694C60.9994 58.0113 60.8803 57.9899 60.5577 57.9899C60.1669 57.9899 60.1058 58.0058 60.0256 58.1275C59.9759 58.2033 59.9203 58.251 59.9023 58.2332C59.8503 58.1825 60.8102 56.7062 60.894 56.7074C60.9569 56.708 61.4309 58.0951 61.4213 58.2497C61.4165 58.3237 61.1496 58.3023 61.0712 58.2222ZM60.8078 57.4923L60.6834 57.117L60.575 57.2631C60.5152 57.3432 60.4099 57.5125 60.3404 57.6384L60.2135 57.8677H60.5726H60.9317L60.8078 57.4923ZM61.7457 58.2216C61.7289 58.1764 61.7642 57.8236 61.8241 57.4379L61.9336 56.7367L62.1174 56.7184L62.3005 56.6994L62.2173 57.238C62.0641 58.2326 62.0551 58.2632 61.9103 58.2846C61.8367 58.2956 61.763 58.2668 61.7457 58.2216ZM47.249 58.1923C47.1275 58.1446 47.161 58.0547 47.4058 57.7705C47.717 57.4098 47.814 57.0467 47.7296 56.5588C47.6937 56.354 47.6458 56.1382 47.6224 56.0796C47.5405 55.8717 47.7248 55.9726 48.0019 56.2874C48.3628 56.6976 48.7584 56.8883 49.2504 56.8889C49.4544 56.8896 49.6352 56.9128 49.6525 56.9415C49.7393 57.0852 48.9601 57.5999 48.1318 57.9453C47.5746 58.1782 47.3627 58.2369 47.249 58.1923ZM53.0759 57.5913C53.1789 57.4862 53.2148 57.3994 53.1884 57.3163C53.1435 57.1714 53.2339 57.1579 53.3644 57.2912C53.5074 57.4373 53.4703 57.5504 53.2381 57.6751C52.9975 57.8041 52.9113 57.7601 53.0759 57.5913ZM56.9446 56.9678C56.8374 56.9287 56.8518 56.7263 56.9649 56.6817C57.017 56.6615 57.0846 56.6603 57.1146 56.6793C57.2516 56.7655 57.0996 57.0247 56.9446 56.9678ZM15.1548 27.1136V14.2717L15.3295 14.0926L15.5049 13.9141L21.2995 13.9147C24.4871 13.9153 27.5663 13.9434 28.1421 13.9776C29.7239 14.0712 31.0161 14.3707 31.988 14.8689C33.9606 15.8801 35.1959 17.5275 35.6969 19.8133C35.801 20.2895 35.8214 20.6526 35.8465 22.5189L35.8752 24.6744L35.4509 25.117L35.0266 25.5596L35.0248 23.3895C35.0218 20.3683 34.9326 19.6733 34.3999 18.5222C33.486 16.5476 31.8946 15.3598 29.6682 14.9912C28.4988 14.7974 27.5113 14.7699 21.7891 14.7699H16.0525L16.0495 17.3833C16.0477 18.8205 16.0465 24.3297 16.0465 29.6249C16.0465 34.9201 16.0322 39.3136 16.0142 39.387C15.9777 39.5367 15.4211 39.9561 15.2589 39.9561C15.1602 39.9561 15.1548 39.2794 15.1548 27.1136ZM22.068 39.887C22.0506 39.8412 22.0434 35.3884 22.0518 29.9917L22.0674 20.18L25.2992 20.1623C27.0768 20.1532 28.6185 20.1611 28.7256 20.1807L28.9201 20.2161V29.0539V37.8911L29.9262 36.3102C30.4792 35.4409 31.5092 33.8277 32.2154 32.7261C32.9211 31.6239 33.6734 30.4483 33.8876 30.1133C34.4137 29.2887 36.1936 26.5249 37.9322 23.8314C38.7199 22.6125 39.8947 20.7828 40.5435 19.7662C41.1916 18.7502 41.7788 17.8436 41.8476 17.7519L41.9733 17.5856L42.3443 17.7299C42.5538 17.8118 42.7082 17.9066 42.698 17.9487C42.6783 18.0343 41.0779 20.575 39.4243 23.1449C39.0891 23.6658 38.5637 24.491 38.2566 24.9789C37.9496 25.4667 37.2895 26.498 36.7903 27.2713C36.2918 28.0446 35.5461 29.2 35.1343 29.8388C33.4022 32.5256 32.1592 34.4469 30.6169 36.8213C29.3762 38.7304 28.98 39.3858 28.98 39.5264C28.98 39.6284 28.959 39.7116 28.9339 39.7116C28.8417 39.7116 28.4365 39.3295 28.3522 39.1632C28.2516 38.9639 28.1696 34.6835 28.1026 26.0945L28.0625 21.0053H25.4991H22.9352V30.1476C22.9352 40.0264 22.9543 39.4414 22.624 39.7562C22.4438 39.928 22.1123 40.0062 22.068 39.887Z" fill="white"/>
<path d="M51.8906 8.0459C52.1078 8.04612 52.3578 8.20821 52.4277 8.39453C52.4331 8.40916 52.4401 8.43384 52.4473 8.46777C52.4856 8.65906 52.5436 9.13609 52.5879 9.63477C52.7339 11.278 52.8467 11.9072 52.8467 11.9072V12.0762L52.8574 12.1914C52.8583 12.2107 52.8979 13.0634 53.2197 16.4512C53.2832 17.1236 53.4439 18.857 53.5762 20.3027C53.7084 21.7485 53.8429 23.1657 53.874 23.4512C53.9231 23.9033 53.9162 24.0002 53.8223 24.1982C53.7704 24.3078 53.6578 24.4112 53.6426 24.4473V24.459C53.6267 24.4634 53.0048 24.6267 51.9834 23.6455C51.504 23.1852 50.7998 22.5147 50.418 22.1553L49.7246 21.5029L49.4609 22.0635C49.3162 22.3726 49.1225 22.7903 49.0303 22.9922C48.9375 23.1939 48.5328 24.0471 48.1318 24.8877C47.0271 27.2019 46.9206 27.4316 46.9434 27.4512C46.9552 27.4617 47.1537 27.5311 47.3838 27.6074C49.1713 28.201 50.5445 29.6146 51.1562 31.4893C51.7045 33.1697 51.5135 35.2598 50.666 36.8389C50.3751 37.3811 50.1731 37.6539 49.7051 38.1387C48.9666 38.9027 48.0832 39.4273 46.9834 39.7568C46.614 39.8671 46.2303 39.924 45.8447 39.9248L37.8818 39.9414C30.0446 39.9579 29.3219 39.9507 29.1436 39.8584C29.0629 39.8162 28.9742 39.759 28.8857 39.6943C28.9059 39.7052 28.9217 39.7119 28.9336 39.7119C28.9587 39.7119 28.9795 39.6285 28.9795 39.5264C28.9801 39.3851 29.3775 38.7289 30.6172 36.8213C32.1594 34.4471 33.4019 32.5254 35.1338 29.8389C35.5456 29.2 36.2915 28.0448 36.79 27.2715C37.2892 26.4982 37.9498 25.4673 38.2568 24.9795C38.5638 24.4918 39.0887 23.6664 39.4238 23.1455C41.0772 20.576 42.6779 18.0357 42.6982 17.9492C42.7084 17.907 42.5532 17.8124 42.3438 17.7305L41.9727 17.5859L41.8477 17.752C41.8171 17.7929 41.6843 17.9943 41.4893 18.2949C41.6244 18.0811 41.7141 17.9347 41.7578 17.8613L41.9473 17.5391L41.374 17.3477C41.0855 17.2517 40.6202 17.101 40.291 16.9971C40.1253 16.9372 39.9138 16.8674 39.6436 16.7812C38.756 16.4988 38.5357 16.3721 38.501 16.0469C38.4974 16.0097 38.4961 15.97 38.4961 15.9268C38.4967 15.7392 38.5336 15.595 38.6006 15.5137C38.7029 15.3908 39.5118 14.9223 41.9375 13.5811C43.0185 12.984 44.025 12.4214 44.874 11.9443C45.2552 11.7301 45.6063 11.5342 45.917 11.3574C46.2114 11.19 46.6715 10.9291 47.1113 10.6797C47.1448 10.6601 47.1766 10.6432 47.2041 10.6279C47.2226 10.617 47.2409 10.6061 47.2588 10.5957C47.4304 10.4986 47.5956 10.4054 47.7422 10.3223C48.3018 10.0056 49.0026 9.59965 49.2988 9.41992C49.6177 9.22623 49.991 9.01194 50.3535 8.81152C50.5305 8.71808 50.7032 8.62568 50.8545 8.54199C50.9125 8.5102 50.9705 8.4782 51.0273 8.44824C51.4202 8.2418 51.7341 8.08932 51.8516 8.05371C51.8683 8.04882 51.8822 8.0459 51.8906 8.0459ZM28.3525 39.1641C28.3807 39.2185 28.4434 39.2965 28.5176 39.376C28.4416 39.2971 28.3825 39.2234 28.3525 39.1641ZM45 29.0625C42.5699 29.0625 40.5996 31.0772 40.5996 33.5625C40.5996 36.0478 42.5699 38.0625 45 38.0625C47.4301 38.0625 49.4004 36.0478 49.4004 33.5625C49.4004 31.0772 47.4301 29.0625 45 29.0625ZM34.2354 29.5693C34.6292 28.955 35.1103 28.2069 35.6729 27.334C36.1133 26.6505 36.6032 25.8902 37.1406 25.0576C35.9592 26.8885 34.8512 28.6096 34.2354 29.5693Z" fill="white"/>
</g>
<path d="M65.44 23V11.8H74.672V23H72.688V13.592H67.408V23H65.44ZM83.1338 11.72L87.9498 23H85.7578L82.2218 14.44L78.7018 23H76.5738L81.3738 11.72H83.1338ZM88.605 23L93.533 11.72H95.357L100.285 23H98.205L97.069 20.296H91.773L90.621 23H88.605ZM92.493 18.552H96.349L94.413 14.072L92.493 18.552ZM103.52 23V13.624H99.9518V11.8H109.056V13.624H105.488V23H103.52ZM115.577 23.16V21.944C111.897 21.896 109.785 20.008 109.785 17.368V17.352C109.785 14.744 111.881 12.856 115.577 12.776V11.64H117.545V12.776C121.209 12.856 123.353 14.696 123.353 17.352V17.368C123.353 19.976 121.257 21.896 117.545 21.944V23.16H115.577ZM121.305 17.368V17.352C121.305 15.768 120.073 14.504 117.513 14.504V20.216C120.025 20.216 121.305 19.016 121.305 17.368ZM111.833 17.368V17.384C111.833 19 113.049 20.2 115.609 20.216V14.504C113.049 14.552 111.833 15.704 111.833 17.368ZM130.956 23.192C127.516 23.192 125.116 20.584 125.116 17.432V17.4C125.116 14.264 127.548 11.608 130.988 11.608C134.428 11.608 136.828 14.216 136.828 17.368V17.4C136.828 20.536 134.396 23.192 130.956 23.192ZM130.988 21.368C133.212 21.368 134.764 19.608 134.764 17.432V17.4C134.764 15.224 133.196 13.432 130.956 13.432C128.732 13.432 127.18 15.192 127.18 17.368V17.4C127.18 19.576 128.748 21.368 130.988 21.368ZM139.206 23V11.8H143.622C146.246 11.8 147.878 13.288 147.878 15.544V15.576C147.878 18.072 145.878 19.4 143.398 19.4H141.174V23H139.206ZM141.174 17.624H143.462C144.95 17.624 145.878 16.792 145.878 15.624V15.592C145.878 14.264 144.934 13.592 143.462 13.592H141.174V17.624ZM149.893 23V11.8H151.989L155.397 17.096L158.805 11.8H160.901V23H158.933V14.968L155.397 20.248H155.333L151.829 15V23H149.893ZM162.824 23L167.752 11.72H169.576L174.504 23H172.424L171.288 20.296H165.992L164.84 23H162.824ZM166.712 18.552H170.568L168.632 14.072L166.712 18.552ZM65.071 37V28.67H68.8076C69.7715 28.67 70.4974 28.9199 70.9853 29.4078C71.3542 29.7767 71.5446 30.2408 71.5446 30.7882V30.812C71.5446 31.8235 70.9734 32.3471 70.3546 32.6684C71.3423 33.0135 72.0087 33.549 72.0087 34.6914V34.7152C72.0087 36.2027 70.783 37 68.9266 37H65.071ZM70.0809 31.05V31.0262C70.0809 30.3598 69.5692 29.9671 68.6172 29.9671H66.5109V32.1805H68.5101C69.4621 32.1805 70.0809 31.8116 70.0809 31.05ZM70.545 34.5605V34.5367C70.545 33.8227 69.9857 33.4181 68.8314 33.4181H66.5109V35.7029H68.9385C69.9381 35.7029 70.545 35.3221 70.545 34.5605ZM77.622 37.1428C75.0635 37.1428 73.2785 35.2031 73.2785 32.8588V32.835C73.2785 30.5026 75.0873 28.5272 77.6458 28.5272C80.2043 28.5272 81.9893 30.4669 81.9893 32.8112V32.835C81.9893 35.1674 80.1805 37.1428 77.622 37.1428ZM77.6458 35.7862C79.2999 35.7862 80.4542 34.4772 80.4542 32.8588V32.835C80.4542 31.2166 79.288 29.8838 77.622 29.8838C75.9679 29.8838 74.8136 31.1928 74.8136 32.8112V32.835C74.8136 34.4534 75.9798 35.7862 77.6458 35.7862ZM83.9653 30.8596L83.0728 29.86C83.9296 29.0984 84.953 28.5272 86.4524 28.5272C88.3445 28.5272 89.5107 29.4078 89.5107 30.7644V30.7763C89.5107 31.8116 88.9514 32.4066 87.9875 32.7279C89.0228 32.9778 89.7249 33.5609 89.7249 34.6914V34.7033C89.7249 36.0956 88.4635 37.1428 86.3334 37.1428C84.8459 37.1428 83.7511 36.6192 82.93 35.9052L83.7987 34.8461C84.5127 35.4173 85.3219 35.8338 86.3691 35.8338C87.4639 35.8338 88.2374 35.3697 88.2374 34.5962V34.5843C88.2374 33.8227 87.5234 33.4062 86.3334 33.4181H84.834V32.1805H86.3572C87.3687 32.1805 88.0232 31.7402 88.0232 30.9786V30.9667C88.0232 30.2646 87.4163 29.8362 86.4167 29.8362C85.4528 29.8362 84.6674 30.2765 83.9653 30.8596ZM91.4393 37V28.67H92.9982L95.5329 32.6089L98.0676 28.67H99.6265V37H98.1628V31.0262L95.5329 34.9532H95.4853L92.8792 31.05V37H91.4393ZM105.745 37.1428C103.187 37.1428 101.402 35.2031 101.402 32.8588V32.835C101.402 30.5026 103.21 28.5272 105.769 28.5272C108.327 28.5272 110.112 30.4669 110.112 32.8112V32.835C110.112 35.1674 108.304 37.1428 105.745 37.1428ZM105.769 35.7862C107.423 35.7862 108.577 34.4772 108.577 32.8588V32.835C108.577 31.2166 107.411 29.8838 105.745 29.8838C104.091 29.8838 102.937 31.1928 102.937 32.8112V32.835C102.937 34.4534 104.103 35.7862 105.769 35.7862ZM110.551 28.67H112.312L115.239 32.1567H115.906L115.894 28.67H117.346L117.334 32.1567H118L120.94 28.67H122.689L119.214 32.7279L122.915 37H121.154L118.072 33.4062H117.334L117.346 37H115.894L115.906 33.4062H115.132L112.062 37H110.337L114.038 32.7279L110.551 28.67ZM124.118 37V28.67H125.581V32.1329H129.556V28.67H131.02V37H129.556V33.4895H125.581V37H124.118ZM137.134 37.1428C134.575 37.1428 132.79 35.2031 132.79 32.8588V32.835C132.79 30.5026 134.599 28.5272 137.157 28.5272C139.716 28.5272 141.501 30.4669 141.501 32.8112V32.835C141.501 35.1674 139.692 37.1428 137.134 37.1428ZM137.157 35.7862C138.811 35.7862 139.966 34.4772 139.966 32.8588V32.835C139.966 31.2166 138.8 29.8838 137.134 29.8838C135.479 29.8838 134.325 31.1928 134.325 32.8112V32.835C134.325 34.4534 135.491 35.7862 137.157 35.7862ZM147.137 37.1428C144.709 37.1428 142.9 35.2507 142.9 32.8588V32.835C142.9 30.4669 144.674 28.5272 147.184 28.5272C148.731 28.5272 149.66 29.0627 150.457 29.8243L149.517 30.9072C148.839 30.2884 148.136 29.8838 147.173 29.8838C145.602 29.8838 144.436 31.1809 144.436 32.8112V32.835C144.436 34.4653 145.59 35.7862 147.184 35.7862C148.196 35.7862 148.862 35.3816 149.576 34.7152L150.516 35.6672C149.672 36.5835 148.684 37.1428 147.137 37.1428ZM154.101 37V30.0266H151.448V28.67H158.219V30.0266H155.565V37H154.101ZM159.736 37V28.67H165.913V29.979H161.2V32.1448H165.377V33.4657H161.2V35.691H165.972V37H159.736ZM171.338 28.0036C170.196 28.0036 169.374 27.4443 169.279 26.409H170.303C170.445 26.7779 170.731 27.004 171.338 27.004C171.945 27.004 172.23 26.7779 172.373 26.409H173.397C173.301 27.4443 172.48 28.0036 171.338 28.0036ZM174.967 37H173.504V30.9786L168.982 37H167.708V28.67H169.172V34.5367L173.563 28.67H174.967V37Z" fill="white"/>
<defs>
<clipPath id="clip0_27_384">
<rect width="44" height="36" fill="white" transform="translate(12 6)"/>
</clipPath>
</defs>
</svg>
